<svg width="299" height="516" viewBox="0 0 299 516" fill="none" xmlns="http://www.w3.org/2000/svg">
<path fill-rule="evenodd" clip-rule="evenodd" d="M120.853 0C169.647 25.1364 195.255 83.7877 184.353 136.5C175.756 178.065 136.039 208.749 137.372 253.138C138.729 298.251 168.879 330.194 161.353 377.5C181.444 352.982 200.458 332.078 208.353 300.5C214.367 261.839 179.943 229.848 190.898 190.72C194.731 177.22 208.153 147.3 231.353 136.5C218.919 181.573 237.455 211.003 266.353 245C300.243 280.246 308.266 343.188 284.853 386C253.141 442.376 189.378 465.573 149.853 515.5C121.558 476.749 77.5264 459.842 48.8528 424C-12.4118 347.419 -19.5127 245.133 47.3528 169C80.8397 130.872 165.348 59.327 120.853 0Z" fill="url(#paint0_linear_1_31)"/>
<defs>
<linearGradient id="paint0_linear_1_31" x1="149.117" y1="0" x2="149.117" y2="515.5" gradientUnits="userSpaceOnUse">
<stop stop-color="#FF3C28"/>
<stop offset="1" stop-color="#8B0000"/>
</linearGradient>
</defs>
</svg>
